<svg version="1.1" viewBox="0.0 0.0 960.0 720.0" fill="none" stroke="none" stroke-linecap="square" stroke-miterlimit="10" xmlns:xlink="http://www.w3.org/1999/xlink" xmlns="http://www.w3.org/2000/svg"><clipPath id="p.0"><path d="m0 0l960.0 0l0 720.0l-960.0 0l0 -720.0z" clip-rule="nonzero"/></clipPath><g clip-path="url(#p.0)"><path fill="#000000" fill-opacity="0.0" d="m0 0l960.0 0l0 720.0l-960.0 0z" fill-rule="evenodd"/><path fill="#f3f3f3" d="m101.62186 187.87401l0 0c0 -70.43152 57.09604 -127.52755 127.52756 -127.52755l0 0c33.82242 0 66.25955 13.435898 90.1756 37.35196c23.916077 23.916054 37.35196 56.353188 37.35196 90.17559l0 0c0 70.43153 -57.09604 127.52757 -127.52756 127.52757l0 0c-70.43152 0 -127.52756 -57.09604 -127.52756 -127.52757z" fill-rule="evenodd"/><path stroke="#000000" stroke-width="1.0" stroke-linejoin="round" stroke-linecap="butt" d="m101.62186 187.87401l0 0c0 -70.43152 57.09604 -127.52755 127.52756 -127.52755l0 0c33.82242 0 66.25955 13.435898 90.1756 37.35196c23.916077 23.916054 37.35196 56.353188 37.35196 90.17559l0 0c0 70.43153 -57.09604 127.52757 -127.52756 127.52757l0 0c-70.43152 0 -127.52756 -57.09604 -127.52756 -127.52757z" fill-rule="evenodd"/><path fill="#000000" d="m201.90356 172.794l0 -9.0625l1.265625 0l0.125 1.296875l0.0625 0q0.65625 -0.640625 1.375 -1.078125q0.71875 -0.453125 1.671875 -0.453125q1.4375 0 2.09375 0.90625q0.65625 0.890625 0.65625 2.640625l0 5.75l-1.53125 0l0 -5.546875q0 -1.28125 -0.40625 -1.84375q-0.40625 -0.578125 -1.296875 -0.578125q-0.71875 0 -1.265625 0.359375q-0.53125 0.359375 -1.21875 1.046875l0 6.5625l-1.53125 0zm12.298721 0.21875q-1.140625 0 -1.90625 -0.671875q-0.75 -0.671875 -0.75 -1.890625q0 -1.5 1.328125 -2.28125q1.328125 -0.796875 4.234375 -1.125q0 -0.421875 -0.09375 -0.828125q-0.078125 -0.421875 -0.28125 -0.734375q-0.203125 -0.3125 -0.578125 -0.5q-0.359375 -0.203125 -0.90625 -0.203125q-0.796875 0 -1.484375 0.296875q-0.6875 0.296875 -1.234375 0.671875l-0.59375 -1.0625q0.640625 -0.421875 1.546875 -0.796875q0.921875 -0.390625 2.015625 -0.390625q1.65625 0 2.40625 1.03125q0.75 1.015625 0.75 2.703125l0 5.5625l-1.265625 0l-0.140625 -1.078125l-0.046875 0q-0.65625 0.53125 -1.40625 0.921875q-0.734375 0.375 -1.59375 0.375zm0.4375 -1.21875q0.65625 0 1.234375 -0.3125q0.578125 -0.3125 1.234375 -0.90625l0 -2.515625q-1.140625 0.140625 -1.921875 0.359375q-0.765625 0.203125 -1.25 0.484375q-0.46875 0.265625 -0.6875 0.640625q-0.203125 0.359375 -0.203125 0.78125q0 0.796875 0.453125 1.140625q0.46875 0.328125 1.140625 0.328125zm6.1058807 -3.078125l0 -1.1875l4.296875 0l0 1.1875l-4.296875 0zm10.2395935 4.296875q-0.90625 0 -1.703125 -0.3125q-0.796875 -0.328125 -1.390625 -0.9375q-0.578125 -0.609375 -0.921875 -1.484375q-0.328125 -0.875 -0.328125 -2.0q0 -1.125 0.34375 -2.0q0.34375 -0.890625 0.90625 -1.5q0.578125 -0.625 1.296875 -0.953125q0.734375 -0.328125 1.515625 -0.328125q0.859375 0 1.53125 0.3125q0.6875 0.296875 1.140625 0.859375q0.46875 0.546875 0.703125 1.34375q0.25 0.78125 0.25 1.75q0 0.234375 -0.015625 0.46875q0 0.234375 -0.046875 0.40625l-6.109375 0q0.09375 1.453125 0.890625 2.3125q0.8125 0.84375 2.125 0.84375q0.65625 0 1.203125 -0.203125q0.546875 -0.203125 1.0625 -0.515625l0.53125 1.015625q-0.59375 0.375 -1.328125 0.65625q-0.71875 0.265625 -1.65625 0.265625zm-2.859375 -5.484375l4.859375 0q0 -1.375 -0.59375 -2.09375q-0.578125 -0.71875 -1.640625 -0.71875q-0.484375 0 -0.9375 0.1875q-0.4375 0.1875 -0.796875 0.546875q-0.34375 0.359375 -0.578125 0.890625q-0.234375 0.515625 -0.3125 1.1875zm10.273422 5.484375q-1.140625 0 -1.90625 -0.671875q-0.75 -0.671875 -0.75 -1.890625q0 -1.5 1.328125 -2.28125q1.328125 -0.796875 4.234375 -1.125q0 -0.421875 -0.09375 -0.828125q-0.078125 -0.421875 -0.28125 -0.734375q-0.203125 -0.3125 -0.578125 -0.5q-0.359375 -0.203125 -0.90625 -0.203125q-0.796875 0 -1.484375 0.296875q-0.6875 0.296875 -1.234375 0.671875l-0.59375 -1.0625q0.640625 -0.421875 1.546875 -0.796875q0.921875 -0.390625 2.015625 -0.390625q1.65625 0 2.40625 1.03125q0.75 1.015625 0.75 2.703125l0 5.5625l-1.265625 0l-0.140625 -1.078125l-0.046875 0q-0.65625 0.53125 -1.40625 0.921875q-0.734375 0.375 -1.59375 0.375zm0.4375 -1.21875q0.65625 0 1.234375 -0.3125q0.578125 -0.3125 1.234375 -0.90625l0 -2.515625q-1.140625 0.140625 -1.921875 0.359375q-0.765625 0.203125 -1.25 0.484375q-0.46875 0.265625 -0.6875 0.640625q-0.203125 0.359375 -0.203125 0.78125q0 0.796875 0.453125 1.140625q0.46875 0.328125 1.140625 0.328125zm9.246506 1.21875q-0.984375 0 -1.859375 -0.34375q-0.875 -0.359375 -1.53125 -0.90625l0.765625 -1.015625q0.609375 0.484375 1.234375 0.78125q0.625 0.296875 1.4375 0.296875q0.890625 0 1.34375 -0.40625q0.453125 -0.421875 0.453125 -1.015625q0 -0.359375 -0.1875 -0.609375q-0.1875 -0.265625 -0.484375 -0.453125q-0.28125 -0.203125 -0.65625 -0.34375q-0.375 -0.15625 -0.75 -0.3125q-0.484375 -0.15625 -0.96875 -0.375q-0.484375 -0.21875 -0.875 -0.515625q-0.375 -0.3125 -0.625 -0.71875q-0.234375 -0.421875 -0.234375 -1.0q0 -0.53125 0.21875 -1.0q0.21875 -0.484375 0.609375 -0.828125q0.40625 -0.359375 0.984375 -0.546875q0.578125 -0.203125 1.296875 -0.203125q0.859375 0 1.578125 0.3125q0.71875 0.296875 1.25 0.71875l-0.734375 0.96875q-0.46875 -0.359375 -0.96875 -0.578125q-0.5 -0.21875 -1.09375 -0.21875q-0.859375 0 -1.265625 0.390625q-0.40625 0.390625 -0.40625 0.90625q0 0.328125 0.171875 0.5625q0.171875 0.234375 0.453125 0.40625q0.28125 0.171875 0.640625 0.3125q0.359375 0.140625 0.75 0.296875q0.484375 0.1875 0.984375 0.390625q0.5 0.203125 0.890625 0.515625q0.390625 0.296875 0.640625 0.75q0.25 0.453125 0.25 1.078125q0 0.5625 -0.21875 1.046875q-0.203125 0.484375 -0.625 0.859375q-0.421875 0.375 -1.046875 0.578125q-0.625 0.21875 -1.421875 0.21875zm7.928009 0q-0.734375 0 -1.234375 -0.21875q-0.484375 -0.21875 -0.796875 -0.609375q-0.3125 -0.390625 -0.4375 -0.953125q-0.125 -0.5625 -0.125 -1.234375l0 -5.015625l-1.34375 0l0 -1.15625l1.40625 -0.09375l0.1875 -2.546875l1.296875 0l0 2.546875l2.4375 0l0 1.25l-2.4375 0l0 5.03125q0 0.84375 0.296875 1.296875q0.3125 0.453125 1.09375 0.453125q0.25 0 0.53125 -0.0625q0.28125 -0.078125 0.5 -0.171875l0.296875 1.15625q-0.375 0.125 -0.8125 0.21875q-0.4375 0.109375 -0.859375 0.109375z" fill-rule="nonzero"/><path fill="#000000" d="m196.34535 217.01276q-1.15625 0 -2.125 -0.4375q-0.953125 -0.453125 -1.640625 -1.28125q-0.6875 -0.828125 -1.078125 -2.015625q-0.375 -1.1875 -0.375 -2.65625q0 -1.484375 0.375 -2.640625q0.390625 -1.171875 1.078125 -1.984375q0.6875 -0.8125 1.640625 -1.234375q0.96875 -0.4375 2.125 -0.4375q1.15625 0 2.109375 0.453125q0.96875 0.4375 1.671875 1.25q0.703125 0.796875 1.078125 1.96875q0.390625 1.171875 0.390625 2.625q0 1.46875 -0.390625 2.65625q-0.375 1.1875 -1.078125 2.015625q-0.703125 0.828125 -1.671875 1.28125q-0.953125 0.4375 -2.109375 0.4375zm0 -1.359375q0.828125 0 1.484375 -0.34375q0.671875 -0.359375 1.140625 -1.015625q0.484375 -0.671875 0.734375 -1.59375q0.265625 -0.921875 0.265625 -2.078125q0 -1.140625 -0.265625 -2.046875q-0.25 -0.921875 -0.734375 -1.546875q-0.46875 -0.640625 -1.140625 -0.984375q-0.65625 -0.34375 -1.484375 -0.34375q-0.8125 0 -1.484375 0.34375q-0.65625 0.34375 -1.140625 0.984375q-0.46875 0.625 -0.734375 1.546875q-0.25 0.90625 -0.25 2.046875q0 1.15625 0.25 2.078125q0.265625 0.921875 0.734375 1.59375q0.484375 0.65625 1.140625 1.015625q0.671875 0.34375 1.484375 0.34375zm7.7315063 4.96875l0 -12.890625l1.265625 0l0.125 1.046875l0.0625 0q0.609375 -0.53125 1.34375 -0.90625q0.75 -0.375 1.546875 -0.375q0.875 0 1.546875 0.328125q0.671875 0.328125 1.125 0.9375q0.453125 0.609375 0.671875 1.453125q0.234375 0.84375 0.234375 1.90625q0 1.171875 -0.3125 2.078125q-0.3125 0.890625 -0.859375 1.53125q-0.53125 0.640625 -1.25 0.96875q-0.703125 0.3125 -1.484375 0.3125q-0.640625 0 -1.265625 -0.265625q-0.625 -0.28125 -1.265625 -0.78125l0.046875 1.59375l0 3.0625l-1.53125 0zm3.75 -4.890625q0.5625 0 1.03125 -0.25q0.484375 -0.25 0.828125 -0.703125q0.34375 -0.46875 0.53125 -1.140625q0.203125 -0.671875 0.203125 -1.515625q0 -0.734375 -0.140625 -1.34375q-0.125 -0.625 -0.421875 -1.0625q-0.28125 -0.4375 -0.734375 -0.671875q-0.453125 -0.25 -1.09375 -0.25q-0.578125 0 -1.171875 0.3125q-0.578125 0.3125 -1.25 0.921875l0 4.75q0.609375 0.515625 1.1875 0.734375q0.578125 0.21875 1.03125 0.21875zm10.276093 1.28125q-0.90625 0 -1.703125 -0.3125q-0.796875 -0.328125 -1.390625 -0.9375q-0.578125 -0.609375 -0.921875 -1.484375q-0.328125 -0.875 -0.328125 -2.0q0 -1.125 0.34375 -2.0q0.34375 -0.890625 0.90625 -1.5q0.578125 -0.625 1.296875 -0.953125q0.734375 -0.328125 1.515625 -0.328125q0.859375 0 1.53125 0.3125q0.6875 0.296875 1.140625 0.859375q0.46875 0.546875 0.703125 1.34375q0.25 0.78125 0.25 1.75q0 0.234375 -0.015625 0.46875q0 0.234375 -0.046875 0.40625l-6.109375 0q0.09375 1.453125 0.890625 2.3125q0.8125 0.84375 2.125 0.84375q0.65625 0 1.203125 -0.203125q0.546875 -0.203125 1.0625 -0.515625l0.53125 1.015625q-0.59375 0.375 -1.328125 0.65625q-0.71875 0.265625 -1.65625 0.265625zm-2.859375 -5.484375l4.859375 0q0 -1.375 -0.59375 -2.09375q-0.578125 -0.71875 -1.640625 -0.71875q-0.484375 0 -0.9375 0.1875q-0.4375 0.1875 -0.796875 0.546875q-0.34375 0.359375 -0.578125 0.890625q-0.234375 0.515625 -0.3125 1.1875zm8.4410095 5.265625l0 -9.0625l1.265625 0l0.125 1.296875l0.0625 0q0.65625 -0.640625 1.375 -1.078125q0.71875 -0.453125 1.671875 -0.453125q1.4375 0 2.09375 0.90625q0.65625 0.890625 0.65625 2.640625l0 5.75l-1.53125 0l0 -5.546875q0 -1.28125 -0.40625 -1.84375q-0.40625 -0.578125 -1.296875 -0.578125q-0.71875 0 -1.265625 0.359375q-0.53125 0.359375 -1.21875 1.046875l0 6.5625l-1.53125 0zm13.751846 0.21875q-1.296875 0 -2.40625 -0.484375q-1.09375 -0.484375 -1.890625 -1.3125l0.9375 -1.09375q0.65625 0.6875 1.53125 1.109375q0.890625 0.421875 1.84375 0.421875q1.21875 0 1.890625 -0.546875q0.671875 -0.546875 0.671875 -1.453125q0 -0.453125 -0.171875 -0.78125q-0.15625 -0.328125 -0.421875 -0.5625q-0.265625 -0.234375 -0.640625 -0.421875q-0.375 -0.1875 -0.8125 -0.390625l-1.75 -0.765625q-0.421875 -0.1875 -0.875 -0.4375q-0.453125 -0.265625 -0.8125 -0.640625q-0.34375 -0.375 -0.578125 -0.890625q-0.21875 -0.515625 -0.21875 -1.1875q0 -0.6875 0.28125 -1.28125q0.296875 -0.59375 0.8125 -1.03125q0.515625 -0.453125 1.21875 -0.6875q0.703125 -0.25 1.53125 -0.25q1.109375 0 2.03125 0.421875q0.9375 0.421875 1.59375 1.09375l-0.84375 1.015625q-0.5625 -0.546875 -1.25 -0.84375q-0.671875 -0.3125 -1.53125 -0.3125q-1.015625 0 -1.640625 0.46875q-0.625 0.46875 -0.625 1.3125q0 0.453125 0.171875 0.765625q0.171875 0.296875 0.46875 0.53125q0.3125 0.234375 0.65625 0.421875q0.359375 0.171875 0.734375 0.3125l1.734375 0.75q0.515625 0.21875 0.984375 0.515625q0.46875 0.28125 0.796875 0.671875q0.34375 0.375 0.53125 0.890625q0.203125 0.515625 0.203125 1.1875q0 0.734375 -0.296875 1.375q-0.28125 0.625 -0.828125 1.109375q-0.53125 0.46875 -1.296875 0.734375q-0.765625 0.265625 -1.734375 0.265625zm6.415558 -0.21875l0 -13.28125l1.53125 0l0 3.625l-0.0625 1.859375q0.65625 -0.609375 1.359375 -1.046875q0.71875 -0.453125 1.671875 -0.453125q1.4375 0 2.09375 0.90625q0.65625 0.890625 0.65625 2.640625l0 5.75l-1.53125 0l0 -5.546875q0 -1.28125 -0.40625 -1.84375q-0.40625 -0.578125 -1.296875 -0.578125q-0.71875 0 -1.265625 0.359375q-0.53125 0.359375 -1.21875 1.046875l0 6.5625l-1.53125 0zm10.149002 0l0 -9.0625l1.53125 0l0 9.0625l-1.53125 0zm0.78125 -10.9375q-0.453125 0 -0.765625 -0.28125q-0.296875 -0.28125 -0.296875 -0.703125q0 -0.453125 0.296875 -0.71875q0.3125 -0.265625 0.765625 -0.265625q0.453125 0 0.75 0.265625q0.3125 0.265625 0.3125 0.71875q0 0.421875 -0.3125 0.703125q-0.296875 0.28125 -0.75 0.28125zm4.073807 10.9375l0 -7.8125l-1.234375 0l0 -1.15625l1.234375 -0.09375l0 -1.4375q0 -1.40625 0.640625 -2.203125q0.640625 -0.796875 2.0 -0.796875q0.4375 0 0.8125 0.078125q0.390625 0.078125 0.703125 0.21875l-0.34375 1.171875q-0.5 -0.21875 -1.015625 -0.21875q-1.265625 0 -1.265625 1.75l0 1.4375l3.3125 0l0.1875 -2.546875l1.265625 0l0 2.546875l2.46875 0l0 1.25l-2.46875 0l0 5.03125q0 0.84375 0.3125 1.296875q0.328125 0.453125 1.109375 0.453125q0.234375 0 0.515625 -0.0625q0.28125 -0.078125 0.515625 -0.171875l0.296875 1.15625q-0.375 0.125 -0.8125 0.21875q-0.4375 0.109375 -0.875 0.109375q-0.71875 0 -1.21875 -0.21875q-0.5 -0.21875 -0.8125 -0.609375q-0.296875 -0.390625 -0.4375 -0.953125q-0.125 -0.5625 -0.125 -1.234375l0 -5.015625l-3.234375 0l0 7.8125l-1.53125 0z" fill-rule="nonzero"/><path fill="#f3f3f3" d="m603.32263 381.19684l0 0c0 -70.43152 57.09607 -127.52754 127.52759 -127.52754l0 0c33.822388 0 66.25952 13.435898 90.1756 37.351944c23.916016 23.916077 37.35193 56.35321 37.35193 90.1756l0 0c0 70.43155 -57.09601 127.52756 -127.52753 127.52756l0 0c-70.43152 0 -127.52759 -57.09601 -127.52759 -127.52756z" fill-rule="evenodd"/><path stroke="#000000" stroke-width="1.0" stroke-linejoin="round" stroke-linecap="butt" d="m603.32263 381.19684l0 0c0 -70.43152 57.09607 -127.52754 127.52759 -127.52754l0 0c33.822388 0 66.25952 13.435898 90.1756 37.351944c23.916016 23.916077 37.35193 56.35321 37.35193 90.1756l0 0c0 70.43155 -57.09601 127.52756 -127.52753 127.52756l0 0c-70.43152 0 -127.52759 -57.09601 -127.52759 -127.52756z" fill-rule="evenodd"/><path fill="#000000" d="m679.98553 366.11685l0 -13.28125l1.53125 0l0 3.625l-0.0625 1.859375q0.65625 -0.609375 1.359375 -1.046875q0.71875 -0.453125 1.671875 -0.453125q1.4375 0 2.09375 0.90625q0.65625 0.890625 0.65625 2.640625l0 5.75l-1.53125 0l0 -5.546875q0 -1.28125 -0.40625 -1.84375q-0.40625 -0.578125 -1.296875 -0.578125q-0.71875 0 -1.265625 0.359375q-0.53125 0.359375 -1.21875 1.046875l0 6.5625l-1.53125 0zm13.820862 0.21875q-0.90625 0 -1.703125 -0.3125q-0.796875 -0.328125 -1.390625 -0.9375q-0.578125 -0.609375 -0.921875 -1.484375q-0.328125 -0.875 -0.328125 -2.0q0 -1.125 0.34375 -2.0q0.34375 -0.890625 0.90625 -1.5q0.578125 -0.625 1.296875 -0.953125q0.734375 -0.328125 1.515625 -0.328125q0.859375 0 1.53125 0.3125q0.6875 0.296875 1.140625 0.859375q0.46875 0.546875 0.703125 1.34375q0.25 0.78125 0.25 1.75q0 0.234375 -0.015625 0.46875q0 0.234375 -0.046875 0.40625l-6.109375 0q0.09375 1.453125 0.890625 2.3125q0.8125 0.84375 2.125 0.84375q0.65625 0 1.203125 -0.203125q0.546875 -0.203125 1.0625 -0.515625l0.53125 1.015625q-0.59375 0.375 -1.328125 0.65625q-0.71875 0.265625 -1.65625 0.265625zm-2.859375 -5.484375l4.859375 0q0 -1.375 -0.59375 -2.09375q-0.578125 -0.71875 -1.640625 -0.71875q-0.484375 0 -0.9375 0.1875q-0.4375 0.1875 -0.796875 0.546875q-0.34375 0.359375 -0.578125 0.890625q-0.234375 0.515625 -0.3125 1.1875zm10.2734375 5.484375q-1.140625 0 -1.90625 -0.671875q-0.75 -0.671875 -0.75 -1.890625q0 -1.5 1.328125 -2.28125q1.328125 -0.796875 4.234375 -1.125q0 -0.421875 -0.09375 -0.828125q-0.078125 -0.421875 -0.28125 -0.734375q-0.203125 -0.3125 -0.578125 -0.5q-0.359375 -0.203125 -0.90625 -0.203125q-0.796875 0 -1.484375 0.296875q-0.6875 0.296875 -1.234375 0.671875l-0.59375 -1.0625q0.640625 -0.421875 1.546875 -0.796875q0.921875 -0.390625 2.015625 -0.390625q1.65625 0 2.40625 1.03125q0.75 1.015625 0.75 2.703125l0 5.5625l-1.265625 0l-0.140625 -1.078125l-0.046875 0q-0.65625 0.53125 -1.40625 0.921875q-0.734375 0.375 -1.59375 0.375zm0.4375 -1.21875q0.65625 0 1.234375 -0.3125q0.578125 -0.3125 1.234375 -0.90625l0 -2.515625q-1.140625 0.140625 -1.921875 0.359375q-0.765625 0.203125 -1.25 0.484375q-0.46875 0.265625 -0.6875 0.640625q-0.203125 0.359375 -0.203125 0.78125q0 0.796875 0.453125 1.140625q0.46875 0.328125 1.140625 0.328125zm9.96521 1.21875q-1.71875 0 -2.734375 -1.21875q-1.015625 -1.234375 -1.015625 -3.515625q0 -1.09375 0.328125 -1.984375q0.328125 -0.890625 0.859375 -1.5q0.546875 -0.625 1.25 -0.953125q0.71875 -0.34375 1.5 -0.34375q0.78125 0 1.359375 0.28125q0.578125 0.28125 1.171875 0.765625l-0.0625 -1.546875l0 -3.484375l1.546875 0l0 13.28125l-1.265625 0l-0.140625 -1.0625l-0.046875 0q-0.546875 0.515625 -1.25 0.90625q-0.703125 0.375 -1.5 0.375zm0.34375 -1.28125q0.625 0 1.1875 -0.296875q0.5625 -0.3125 1.125 -0.953125l0 -4.734375q-0.578125 -0.53125 -1.109375 -0.734375q-0.53125 -0.21875 -1.09375 -0.21875q-0.546875 0 -1.03125 0.25q-0.46875 0.25 -0.828125 0.71875q-0.34375 0.453125 -0.546875 1.09375q-0.203125 0.625 -0.203125 1.40625q0 1.640625 0.640625 2.5625q0.65625 0.90625 1.859375 0.90625zm12.666748 4.890625l0 -3.234375l0.0625 -1.640625q-0.53125 0.546875 -1.234375 0.90625q-0.703125 0.359375 -1.484375 0.359375q-1.71875 0 -2.734375 -1.21875q-1.015625 -1.234375 -1.015625 -3.515625q0 -1.09375 0.328125 -1.984375q0.328125 -0.890625 0.859375 -1.5q0.546875 -0.625 1.25 -0.953125q0.71875 -0.34375 1.5 -0.34375q0.78125 0 1.375 0.28125q0.609375 0.265625 1.21875 0.8125l0.03125 0l0.15625 -0.859375l1.234375 0l0 12.890625l-1.546875 0zm-2.3125 -4.890625q0.625 0 1.1875 -0.296875q0.5625 -0.3125 1.125 -0.953125l0 -4.734375q-0.578125 -0.53125 -1.109375 -0.734375q-0.53125 -0.21875 -1.09375 -0.21875q-0.546875 0 -1.03125 0.25q-0.46875 0.25 -0.828125 0.71875q-0.34375 0.453125 -0.546875 1.09375q-0.203125 0.625 -0.203125 1.40625q0 1.640625 0.640625 2.5625q0.65625 0.90625 1.859375 0.90625zm9.557312 1.28125q-1.453125 0 -2.109375 -0.890625q-0.65625 -0.890625 -0.65625 -2.65625l0 -5.734375l1.546875 0l0 5.53125q0 1.296875 0.390625 1.875q0.40625 0.5625 1.296875 0.5625q0.71875 0 1.25 -0.359375q0.546875 -0.375 1.203125 -1.171875l0 -6.4375l1.53125 0l0 9.0625l-1.28125 0l-0.125 -1.421875l-0.0625 0q-0.625 0.75 -1.328125 1.203125q-0.703125 0.4375 -1.65625 0.4375zm9.602173 0q-1.140625 0 -1.90625 -0.671875q-0.75 -0.671875 -0.75 -1.890625q0 -1.5 1.328125 -2.28125q1.328125 -0.796875 4.234375 -1.125q0 -0.421875 -0.09375 -0.828125q-0.078125 -0.421875 -0.28125 -0.734375q-0.203125 -0.3125 -0.578125 -0.5q-0.359375 -0.203125 -0.90625 -0.203125q-0.796875 0 -1.484375 0.296875q-0.6875 0.296875 -1.234375 0.671875l-0.59375 -1.0625q0.640625 -0.421875 1.546875 -0.796875q0.921875 -0.390625 2.015625 -0.390625q1.65625 0 2.40625 1.03125q0.75 1.015625 0.75 2.703125l0 5.5625l-1.265625 0l-0.140625 -1.078125l-0.046875 0q-0.65625 0.53125 -1.40625 0.921875q-0.734375 0.375 -1.59375 0.375zm0.4375 -1.21875q0.65625 0 1.234375 -0.3125q0.578125 -0.3125 1.234375 -0.90625l0 -2.515625q-1.140625 0.140625 -1.921875 0.359375q-0.765625 0.203125 -1.25 0.484375q-0.46875 0.265625 -0.6875 0.640625q-0.203125 0.359375 -0.203125 0.78125q0 0.796875 0.453125 1.140625q0.46875 0.328125 1.140625 0.328125zm6.87146 1.0l0 -9.0625l1.265625 0l0.125 1.640625l0.0625 0q0.46875 -0.859375 1.125 -1.359375q0.671875 -0.515625 1.453125 -0.515625q0.53125 0 0.96875 0.1875l-0.296875 1.34375q-0.234375 -0.0625 -0.421875 -0.09375q-0.171875 -0.046875 -0.453125 -0.046875q-0.578125 0 -1.203125 0.46875q-0.625 0.453125 -1.09375 1.609375l0 5.828125l-1.53125 0zm9.33313 0.21875q-0.734375 0 -1.234375 -0.21875q-0.484375 -0.21875 -0.796875 -0.609375q-0.3125 -0.390625 -0.4375 -0.953125q-0.125 -0.5625 -0.125 -1.234375l0 -5.015625l-1.34375 0l0 -1.15625l1.40625 -0.09375l0.1875 -2.546875l1.296875 0l0 2.546875l2.4375 0l0 1.25l-2.4375 0l0 5.03125q0 0.84375 0.296875 1.296875q0.3125 0.453125 1.09375 0.453125q0.25 0 0.53125 -0.0625q0.28125 -0.078125 0.5 -0.171875l0.296875 1.15625q-0.375 0.125 -0.8125 0.21875q-0.4375 0.109375 -0.859375 0.109375zm6.8569946 0q-0.90625 0 -1.703125 -0.3125q-0.796875 -0.328125 -1.390625 -0.9375q-0.578125 -0.609375 -0.921875 -1.484375q-0.328125 -0.875 -0.328125 -2.0q0 -1.125 0.34375 -2.0q0.34375 -0.890625 0.90625 -1.5q0.578125 -0.625 1.296875 -0.953125q0.734375 -0.328125 1.515625 -0.328125q0.859375 0 1.53125 0.3125q0.6875 0.296875 1.140625 0.859375q0.46875 0.546875 0.703125 1.34375q0.25 0.78125 0.25 1.75q0 0.234375 -0.015625 0.46875q0 0.234375 -0.046875 0.40625l-6.109375 0q0.09375 1.453125 0.890625 2.3125q0.8125 0.84375 2.125 0.84375q0.65625 0 1.203125 -0.203125q0.546875 -0.203125 1.0625 -0.515625l0.53125 1.015625q-0.59375 0.375 -1.328125 0.65625q-0.71875 0.265625 -1.65625 0.265625zm-2.859375 -5.484375l4.859375 0q0 -1.375 -0.59375 -2.09375q-0.578125 -0.71875 -1.640625 -0.71875q-0.484375 0 -0.9375 0.1875q-0.4375 0.1875 -0.796875 0.546875q-0.34375 0.359375 -0.578125 0.890625q-0.234375 0.515625 -0.3125 1.1875zm8.440979 5.265625l0 -9.0625l1.265625 0l0.125 1.640625l0.0625 0q0.46875 -0.859375 1.125 -1.359375q0.671875 -0.515625 1.453125 -0.515625q0.53125 0 0.96875 0.1875l-0.296875 1.34375q-0.234375 -0.0625 -0.421875 -0.09375q-0.171875 -0.046875 -0.453125 -0.046875q-0.578125 0 -1.203125 0.46875q-0.625 0.453125 -1.09375 1.609375l0 5.828125l-1.53125 0zm8.774048 0.21875q-0.984375 0 -1.859375 -0.34375q-0.875 -0.359375 -1.53125 -0.90625l0.765625 -1.015625q0.609375 0.484375 1.234375 0.78125q0.625 0.296875 1.4375 0.296875q0.890625 0 1.34375 -0.40625q0.453125 -0.421875 0.453125 -1.015625q0 -0.359375 -0.1875 -0.609375q-0.1875 -0.265625 -0.484375 -0.453125q-0.28125 -0.203125 -0.65625 -0.34375q-0.375 -0.15625 -0.75 -0.3125q-0.484375 -0.15625 -0.96875 -0.375q-0.484375 -0.21875 -0.875 -0.515625q-0.375 -0.3125 -0.625 -0.71875q-0.234375 -0.421875 -0.234375 -1.0q0 -0.53125 0.21875 -1.0q0.21875 -0.484375 0.609375 -0.828125q0.40625 -0.359375 0.984375 -0.546875q0.578125 -0.203125 1.296875 -0.203125q0.859375 0 1.578125 0.3125q0.71875 0.296875 1.25 0.71875l-0.734375 0.96875q-0.46875 -0.359375 -0.96875 -0.578125q-0.5 -0.21875 -1.09375 -0.21875q-0.859375 0 -1.265625 0.390625q-0.40625 0.390625 -0.40625 0.90625q0 0.328125 0.171875 0.5625q0.171875 0.234375 0.453125 0.40625q0.28125 0.171875 0.640625 0.3125q0.359375 0.140625 0.75 0.296875q0.484375 0.1875 0.984375 0.390625q0.5 0.203125 0.890625 0.515625q0.390625 0.296875 0.640625 0.75q0.25 0.453125 0.25 1.078125q0 0.5625 -0.21875 1.046875q-0.203125 0.484375 -0.625 0.859375q-0.421875 0.375 -1.046875 0.578125q-0.625 0.21875 -1.421875 0.21875z" fill-rule="nonzero"/><path fill="#000000" d="m719.2587 403.2731l-0.578125 1.859375l3.6875 0l-0.578125 -1.859375q-0.34375 -1.03125 -0.640625 -2.046875q-0.296875 -1.015625 -0.59375 -2.078125l-0.078125 0q-0.28125 1.0625 -0.578125 2.078125q-0.296875 1.015625 -0.640625 2.046875zm-3.71875 6.84375l4.140625 -12.234375l1.75 0l4.140625 12.234375l-1.65625 0l-1.15625 -3.734375l-4.46875 0l-1.171875 3.734375l-1.578125 0zm11.758423 0l0 -12.234375l1.5625 0l0 6.140625l0.046875 0l5.09375 -6.140625l1.75 0l-3.8125 4.65625l4.421875 7.578125l-1.734375 0l-3.671875 -6.359375l-2.09375 2.484375l0 3.875l-1.5625 0zm14.040222 0.21875q-1.296875 0 -2.40625 -0.484375q-1.09375 -0.484375 -1.890625 -1.3125l0.9375 -1.09375q0.65625 0.6875 1.53125 1.109375q0.890625 0.421875 1.84375 0.421875q1.21875 0 1.890625 -0.546875q0.671875 -0.546875 0.671875 -1.453125q0 -0.453125 -0.171875 -0.78125q-0.15625 -0.328125 -0.421875 -0.5625q-0.265625 -0.234375 -0.640625 -0.421875q-0.375 -0.1875 -0.8125 -0.390625l-1.75 -0.765625q-0.421875 -0.1875 -0.875 -0.4375q-0.453125 -0.265625 -0.8125 -0.640625q-0.34375 -0.375 -0.578125 -0.890625q-0.21875 -0.515625 -0.21875 -1.1875q0 -0.6875 0.28125 -1.28125q0.296875 -0.59375 0.8125 -1.03125q0.515625 -0.453125 1.21875 -0.6875q0.703125 -0.25 1.53125 -0.25q1.109375 0 2.03125 0.421875q0.9375 0.421875 1.59375 1.09375l-0.84375 1.015625q-0.5625 -0.546875 -1.25 -0.84375q-0.671875 -0.3125 -1.53125 -0.3125q-1.015625 0 -1.640625 0.46875q-0.625 0.46875 -0.625 1.3125q0 0.453125 0.171875 0.765625q0.171875 0.296875 0.46875 0.53125q0.3125 0.234375 0.65625 0.421875q0.359375 0.171875 0.734375 0.3125l1.734375 0.75q0.515625 0.21875 0.984375 0.515625q0.46875 0.28125 0.796875 0.671875q0.34375 0.375 0.53125 0.890625q0.203125 0.515625 0.203125 1.1875q0 0.734375 -0.296875 1.375q-0.28125 0.625 -0.828125 1.109375q-0.53125 0.46875 -1.296875 0.734375q-0.765625 0.265625 -1.734375 0.265625z" fill-rule="nonzero"/><path fill="#f3f3f3" d="m101.62185 532.126l0 0c0 -70.43152 57.09603 -127.52756 127.527565 -127.52756l0 0c33.82242 0 66.25955 13.435913 90.1756 37.35196c23.916046 23.916046 37.35196 56.35318 37.35196 90.1756l0 0c0 70.43152 -57.09604 127.52759 -127.52756 127.52759l0 0c-70.43153 0 -127.527565 -57.09607 -127.527565 -127.52759z" fill-rule="evenodd"/><path stroke="#000000" stroke-width="1.0" stroke-linejoin="round" stroke-linecap="butt" d="m101.62185 532.126l0 0c0 -70.43152 57.09603 -127.52756 127.527565 -127.52756l0 0c33.82242 0 66.25955 13.435913 90.1756 37.35196c23.916046 23.916046 37.35196 56.35318 37.35196 90.1756l0 0c0 70.43152 -57.09604 127.52759 -127.52756 127.52759l0 0c-70.43153 0 -127.527565 -57.09607 -127.527565 -127.52759z" fill-rule="evenodd"/><path fill="#000000" d="m199.81401 517.04596l0 -9.0624695l1.265625 0l0.125 1.296875l0.0625 0q0.65625 -0.640625 1.375 -1.078125q0.71875 -0.453125 1.671875 -0.453125q1.4375 0 2.09375 0.90625q0.65625 0.890625 0.65625 2.640625l0 5.7499695l-1.53125 0l0 -5.5468445q0 -1.28125 -0.40625 -1.84375q-0.40625 -0.578125 -1.296875 -0.578125q-0.71875 0 -1.265625 0.359375q-0.53125 0.359375 -1.21875 1.046875l0 6.5624695l-1.53125 0zm12.298721 0.21875q-1.140625 0 -1.90625 -0.671875q-0.75 -0.671875 -0.75 -1.890625q0 -1.5 1.328125 -2.28125q1.328125 -0.7968445 4.234375 -1.1249695q0 -0.421875 -0.09375 -0.828125q-0.078125 -0.421875 -0.28125 -0.734375q-0.203125 -0.3125 -0.578125 -0.5q-0.359375 -0.203125 -0.90625 -0.203125q-0.796875 0 -1.484375 0.296875q-0.6875 0.296875 -1.234375 0.671875l-0.59375 -1.0625q0.640625 -0.421875 1.546875 -0.796875q0.921875 -0.390625 2.015625 -0.390625q1.65625 0 2.40625 1.03125q0.75 1.015625 0.75 2.703125l0 5.5624695l-1.265625 0l-0.140625 -1.078125l-0.046875 0q-0.65625 0.53125 -1.40625 0.921875q-0.734375 0.375 -1.59375 0.375zm0.4375 -1.21875q0.65625 0 1.234375 -0.3125q0.578125 -0.3125 1.234375 -0.90625l0 -2.515625q-1.140625 0.140625 -1.921875 0.359375q-0.765625 0.203125 -1.25 0.484375q-0.46875 0.265625 -0.6875 0.640625q-0.203125 0.359375 -0.203125 0.78125q0 0.796875 0.453125 1.140625q0.46875 0.328125 1.140625 0.328125zm6.1058807 -3.078125l0 -1.1874695l4.296875 0l0 1.1874695l-4.296875 0zm8.0052185 4.078125l-2.515625 -9.0624695l1.5625 0l1.34375 5.2343445q0.140625 0.65625 0.265625 1.28125q0.140625 0.609375 0.28125 1.234375l0.0625 0q0.15625 -0.625 0.296875 -1.25q0.15625 -0.625 0.328125 -1.265625l1.390625 -5.2343445l1.5 0l1.421875 5.2343445q0.15625 0.65625 0.3125 1.28125q0.171875 0.609375 0.3125 1.234375l0.078125 0q0.140625 -0.625 0.265625 -1.234375q0.140625 -0.625 0.296875 -1.28125l1.328125 -5.2343445l1.453125 0l-2.4375 9.0624695l-1.859375 0l-1.3125 -4.875q-0.15625 -0.6405945 -0.296875 -1.2812195q-0.140625 -0.640625 -0.3125 -1.328125l-0.078125 0q-0.140625 0.6875 -0.296875 1.34375q-0.140625 0.640625 -0.328125 1.2968445l-1.28125 4.84375l-1.78125 0zm15.554901 0.21875q-0.90625 0 -1.703125 -0.3125q-0.796875 -0.328125 -1.390625 -0.9375q-0.578125 -0.609375 -0.921875 -1.484375q-0.328125 -0.875 -0.328125 -2.0q0 -1.1249695 0.34375 -1.9999695q0.34375 -0.890625 0.90625 -1.5q0.578125 -0.625 1.296875 -0.953125q0.734375 -0.328125 1.515625 -0.328125q0.859375 0 1.53125 0.3125q0.6875 0.296875 1.140625 0.859375q0.46875 0.546875 0.703125 1.34375q0.25 0.78125 0.25 1.7499695q0 0.234375 -0.015625 0.46875q0 0.234375 -0.046875 0.40625l-6.109375 0q0.09375 1.453125 0.890625 2.3125q0.8125 0.84375 2.125 0.84375q0.65625 0 1.203125 -0.203125q0.546875 -0.203125 1.0625 -0.515625l0.53125 1.015625q-0.59375 0.375 -1.328125 0.65625q-0.71875 0.265625 -1.65625 0.265625zm-2.859375 -5.4843445l4.859375 0q0 -1.375 -0.59375 -2.09375q-0.578125 -0.71875 -1.640625 -0.71875q-0.484375 0 -0.9375 0.1875q-0.4375 0.1875 -0.796875 0.546875q-0.34375 0.359375 -0.578125 0.890625q-0.234375 0.515625 -0.3125 1.1875zm10.8160095 5.4843445q-0.984375 0 -1.859375 -0.34375q-0.875 -0.359375 -1.53125 -0.90625l0.765625 -1.015625q0.609375 0.484375 1.234375 0.78125q0.625 0.296875 1.4375 0.296875q0.890625 0 1.34375 -0.40625q0.453125 -0.421875 0.453125 -1.015625q0 -0.359375 -0.1875 -0.609375q-0.1875 -0.265625 -0.484375 -0.453125q-0.28125 -0.203125 -0.65625 -0.34375q-0.375 -0.15625 -0.75 -0.3125q-0.484375 -0.15625 -0.96875 -0.375q-0.484375 -0.21875 -0.875 -0.515625q-0.375 -0.31246948 -0.625 -0.7187195q-0.234375 -0.421875 -0.234375 -1.0q0 -0.53125 0.21875 -1.0q0.21875 -0.484375 0.609375 -0.828125q0.40625 -0.359375 0.984375 -0.546875q0.578125 -0.203125 1.296875 -0.203125q0.859375 0 1.578125 0.3125q0.71875 0.296875 1.25 0.71875l-0.734375 0.96875q-0.46875 -0.359375 -0.96875 -0.578125q-0.5 -0.21875 -1.09375 -0.21875q-0.859375 0 -1.265625 0.390625q-0.40625 0.390625 -0.40625 0.90625q0 0.328125 0.171875 0.5625q0.171875 0.234375 0.453125 0.40625q0.28125 0.171875 0.640625 0.3125q0.359375 0.140625 0.75 0.296875q0.484375 0.18746948 0.984375 0.39059448q0.5 0.203125 0.890625 0.515625q0.390625 0.296875 0.640625 0.75q0.25 0.453125 0.25 1.078125q0 0.5625 -0.21875 1.046875q-0.203125 0.484375 -0.625 0.859375q-0.421875 0.375 -1.046875 0.578125q-0.625 0.21875 -1.421875 0.21875zm7.927994 0q-0.734375 0 -1.234375 -0.21875q-0.484375 -0.21875 -0.796875 -0.609375q-0.31248474 -0.390625 -0.43748474 -0.953125q-0.125 -0.5625 -0.125 -1.234375l0 -5.0155945l-1.34375 0l0 -1.15625l1.40625 -0.09375l0.1875 -2.546875l1.2968597 0l0 2.546875l2.4375 0l0 1.25l-2.4375 0l0 5.0312195q0 0.84375 0.296875 1.296875q0.3125 0.453125 1.09375 0.453125q0.25 0 0.53125 -0.0625q0.28125 -0.078125 0.5 -0.171875l0.296875 1.15625q-0.375 0.125 -0.8125 0.21875q-0.4375 0.109375 -0.859375 0.109375z" fill-rule="nonzero"/><path fill="#000000" d="m196.34534 561.2647q-1.15625 0 -2.125 -0.4375q-0.953125 -0.453125 -1.640625 -1.28125q-0.6875 -0.828125 -1.078125 -2.015625q-0.375 -1.1875 -0.375 -2.65625q0 -1.484375 0.375 -2.640625q0.390625 -1.171875 1.078125 -1.984375q0.6875 -0.8125 1.640625 -1.234375q0.96875 -0.4375 2.125 -0.4375q1.15625 0 2.109375 0.453125q0.96875 0.4375 1.671875 1.25q0.703125 0.796875 1.078125 1.96875q0.390625 1.171875 0.390625 2.625q0 1.46875 -0.390625 2.65625q-0.375 1.1875 -1.078125 2.015625q-0.703125 0.828125 -1.671875 1.28125q-0.953125 0.4375 -2.109375 0.4375zm0 -1.359375q0.828125 0 1.484375 -0.34375q0.671875 -0.359375 1.140625 -1.015625q0.484375 -0.671875 0.734375 -1.59375q0.265625 -0.921875 0.265625 -2.078125q0 -1.140625 -0.265625 -2.046875q-0.25 -0.921875 -0.734375 -1.546875q-0.46875 -0.640625 -1.140625 -0.984375q-0.65625 -0.34375 -1.484375 -0.34375q-0.8125 0 -1.484375 0.34375q-0.65625 0.34375 -1.140625 0.984375q-0.46875 0.625 -0.734375 1.546875q-0.25 0.90625 -0.25 2.046875q0 1.15625 0.25 2.078125q0.265625 0.921875 0.734375 1.59375q0.484375 0.65625 1.140625 1.015625q0.671875 0.34375 1.484375 0.34375zm7.7315063 4.96875l0 -12.890625l1.265625 0l0.125 1.046875l0.0625 0q0.609375 -0.53125 1.34375 -0.90625q0.75 -0.375 1.546875 -0.375q0.875 0 1.546875 0.328125q0.671875 0.328125 1.125 0.9375q0.453125 0.609375 0.671875 1.453125q0.234375 0.84375 0.234375 1.90625q0 1.171875 -0.3125 2.078125q-0.3125 0.890625 -0.859375 1.53125q-0.53125 0.640625 -1.25 0.96875q-0.703125 0.3125 -1.484375 0.3125q-0.640625 0 -1.265625 -0.265625q-0.625 -0.28125 -1.265625 -0.78125l0.046875 1.59375l0 3.0625l-1.53125 0zm3.75 -4.890625q0.5625 0 1.03125 -0.25q0.484375 -0.25 0.828125 -0.703125q0.34375 -0.46875 0.53125 -1.140625q0.203125 -0.671875 0.203125 -1.515625q0 -0.734375 -0.140625 -1.34375q-0.125 -0.625 -0.421875 -1.0625q-0.28125 -0.4375 -0.734375 -0.671875q-0.453125 -0.25 -1.09375 -0.25q-0.578125 0 -1.171875 0.3125q-0.578125 0.3125 -1.25 0.921875l0 4.75q0.609375 0.515625 1.1875 0.734375q0.578125 0.21875 1.03125 0.21875zm10.276093 1.28125q-0.90625 0 -1.703125 -0.3125q-0.796875 -0.328125 -1.390625 -0.9375q-0.578125 -0.609375 -0.921875 -1.484375q-0.328125 -0.875 -0.328125 -2.0q0 -1.125 0.34375 -2.0q0.34375 -0.890625 0.90625 -1.5q0.578125 -0.625 1.296875 -0.953125q0.734375 -0.328125 1.515625 -0.328125q0.859375 0 1.53125 0.3125q0.6875 0.296875 1.140625 0.859375q0.46875 0.546875 0.703125 1.34375q0.25 0.78125 0.25 1.75q0 0.234375 -0.015625 0.46875q0 0.234375 -0.046875 0.40625l-6.109375 0q0.09375 1.453125 0.890625 2.3125q0.8125 0.84375 2.125 0.84375q0.65625 0 1.203125 -0.203125q0.546875 -0.203125 1.0625 -0.515625l0.53125 1.015625q-0.59375 0.375 -1.328125 0.65625q-0.71875 0.265625 -1.65625 0.265625zm-2.859375 -5.484375l4.859375 0q0 -1.375 -0.59375 -2.09375q-0.578125 -0.71875 -1.640625 -0.71875q-0.484375 0 -0.9375 0.1875q-0.4375 0.1875 -0.796875 0.546875q-0.34375 0.359375 -0.578125 0.890625q-0.234375 0.515625 -0.3125 1.1875zm8.4410095 5.265625l0 -9.0625l1.265625 0l0.125 1.296875l0.0625 0q0.65625 -0.640625 1.375 -1.078125q0.71875 -0.453125 1.671875 -0.453125q1.4375 0 2.09375 0.90625q0.65625 0.890625 0.65625 2.640625l0 5.75l-1.53125 0l0 -5.546875q0 -1.28125 -0.40625 -1.84375q-0.40625 -0.578125 -1.296875 -0.578125q-0.71875 0 -1.265625 0.359375q-0.53125 0.359375 -1.21875 1.046875l0 6.5625l-1.53125 0zm13.751846 0.21875q-1.296875 0 -2.40625 -0.484375q-1.09375 -0.484375 -1.890625 -1.3125l0.9375 -1.09375q0.65625 0.6875 1.53125 1.109375q0.890625 0.421875 1.84375 0.421875q1.21875 0 1.890625 -0.546875q0.671875 -0.546875 0.671875 -1.453125q0 -0.453125 -0.171875 -0.78125q-0.15625 -0.328125 -0.421875 -0.5625q-0.265625 -0.234375 -0.640625 -0.421875q-0.375 -0.1875 -0.8125 -0.390625l-1.75 -0.765625q-0.421875 -0.1875 -0.875 -0.4375q-0.453125 -0.265625 -0.8125 -0.640625q-0.34375 -0.375 -0.578125 -0.890625q-0.21875 -0.515625 -0.21875 -1.1875q0 -0.6875 0.28125 -1.28125q0.296875 -0.59375 0.8125 -1.03125q0.515625 -0.453125 1.21875 -0.6875q0.703125 -0.25 1.53125 -0.25q1.109375 0 2.03125 0.421875q0.9375 0.421875 1.59375 1.09375l-0.84375 1.015625q-0.5625 -0.546875 -1.25 -0.84375q-0.671875 -0.3125 -1.53125 -0.3125q-1.015625 0 -1.640625 0.46875q-0.625 0.46875 -0.625 1.3125q0 0.453125 0.171875 0.765625q0.171875 0.296875 0.46875 0.53125q0.3125 0.234375 0.65625 0.421875q0.359375 0.171875 0.734375 0.3125l1.734375 0.75q0.515625 0.21875 0.984375 0.515625q0.46875 0.28125 0.796875 0.671875q0.34375 0.375 0.53125 0.890625q0.203125 0.515625 0.203125 1.1875q0 0.734375 -0.296875 1.375q-0.28125 0.625 -0.828125 1.109375q-0.53125 0.46875 -1.296875 0.734375q-0.765625 0.265625 -1.734375 0.265625zm6.415558 -0.21875l0 -13.28125l1.53125 0l0 3.625l-0.0625 1.859375q0.65625 -0.609375 1.359375 -1.046875q0.71875 -0.453125 1.671875 -0.453125q1.4375 0 2.09375 0.90625q0.65625 0.890625 0.65625 2.640625l0 5.75l-1.53125 0l0 -5.546875q0 -1.28125 -0.40625 -1.84375q-0.40625 -0.578125 -1.296875 -0.578125q-0.71875 0 -1.265625 0.359375q-0.53125 0.359375 -1.21875 1.046875l0 6.5625l-1.53125 0zm10.149002 0l0 -9.0625l1.53125 0l0 9.0625l-1.53125 0zm0.78125 -10.9375q-0.453125 0 -0.765625 -0.28125q-0.296875 -0.28125 -0.296875 -0.703125q0 -0.453125 0.296875 -0.71875q0.3125 -0.265625 0.765625 -0.265625q0.453125 0 0.75 0.265625q0.3125 0.265625 0.3125 0.71875q0 0.421875 -0.3125 0.703125q-0.296875 0.28125 -0.75 0.28125zm4.073822 10.9375l0 -7.8125l-1.234375 0l0 -1.15625l1.234375 -0.09375l0 -1.4375q0 -1.40625 0.640625 -2.203125q0.640625 -0.796875 2.0 -0.796875q0.4375 0 0.8125 0.078125q0.390625 0.078125 0.703125 0.21875l-0.34375 1.171875q-0.5 -0.21875 -1.015625 -0.21875q-1.265625 0 -1.265625 1.75l0 1.4375l3.3125 0l0.1875 -2.546875l1.265625 0l0 2.546875l2.46875 0l0 1.25l-2.46875 0l0 5.03125q0 0.84375 0.3125 1.296875q0.328125 0.453125 1.109375 0.453125q0.234375 0 0.515625 -0.0625q0.28125 -0.078125 0.515625 -0.171875l0.296875 1.15625q-0.375 0.125 -0.8125 0.21875q-0.4375 0.109375 -0.875 0.109375q-0.71875 0 -1.21875 -0.21875q-0.5 -0.21875 -0.8125 -0.609375q-0.296875 -0.390625 -0.4375 -0.953125q-0.125 -0.5625 -0.125 -1.234375l0 -5.015625l-3.234375 0l0 7.8125l-1.53125 0z" fill-rule="nonzero"/><path fill="#000000" fill-opacity="0.0" d="m356.67697 187.87401c61.661438 0 92.49213 48.33072 123.322845 96.66142c30.830719 48.33072 61.661438 96.66141 123.322815 96.66141" fill-rule="evenodd"/><path stroke="#93c47d" stroke-width="4.0" stroke-linejoin="round" stroke-linecap="butt" d="m356.67697 187.87401c61.661438 0 92.49213 48.33072 123.322845 96.66142c30.830719 48.33072 61.661438 96.66141 123.322815 96.66141" fill-rule="evenodd"/><path fill="#000000" fill-opacity="0.0" d="m356.67697 532.126c61.661407 0 92.49213 -37.73227 123.322845 -75.46457c30.830688 -37.73227 61.661377 -75.46457 123.322815 -75.46457" fill-rule="evenodd"/><path stroke="#93c47d" stroke-width="4.0" stroke-linejoin="round" stroke-linecap="butt" d="m356.67697 532.126c61.661407 0 92.49213 -37.73227 123.322845 -75.46457c30.830688 -37.73227 61.661377 -75.46457 123.322815 -75.46457" fill-rule="evenodd"/></g></svg>